<svg width="329" height="325" viewBox="0 0 329 325" fill="none" xmlns="http://www.w3.org/2000/svg">
<rect x="23.5767" y="12.1531" width="287.205" height="260.414" fill="white"/>
<path d="M0 162.982V324.993H164.5H329V162.982V0.971008H164.5H0V162.982ZM265.837 41.912C266.582 42.3079 267.671 43.3823 268.301 44.2871C269.333 45.8704 269.39 47.3972 269.39 92.4097V138.949H261.939H254.488V92.2401V45.5311L256.723 43.3257C258.672 41.3466 259.245 41.1204 261.71 41.1204C263.257 41.1769 265.091 41.4597 265.837 41.912ZM155.559 92.5794C160.488 93.8234 171.837 98.9693 172.295 100.157C172.467 100.609 170.174 104.511 167.251 108.809L161.921 116.726L157.45 114.633C147.305 109.94 137.446 109.94 134.982 114.69C133.893 116.669 133.893 117.687 134.924 119.609C135.956 121.589 138.707 123.059 148.68 127.017C163.01 132.729 168.684 136.687 171.837 143.36C173.843 147.601 174.301 156.422 172.811 161.964C170.117 171.747 161.29 179.268 149.598 181.7C140.885 183.509 128.677 181.926 119.506 177.741C114.577 175.479 108.902 171.973 108.902 171.182C108.902 170.107 118.818 155.914 119.563 155.914C119.965 155.914 122.143 156.931 124.493 158.119C133.95 163.152 142.433 164.565 147.763 162.077C150.687 160.664 152.177 157.949 151.661 155.065C151.03 151.899 149.368 150.824 137.79 146.3C125.41 141.437 119.793 137.931 116.296 132.898C111.252 125.717 111.023 113.842 115.666 105.359C118.818 99.5914 126.098 94.3324 133.606 92.3532C138.421 91.0526 150.113 91.1657 155.559 92.5794ZM228.065 92.2966C233.28 93.5407 238.152 96.255 242.279 100.27C247.896 105.812 248.011 105.02 240.159 112.654L233.28 119.27L229.841 116.16C225.829 112.484 223.422 111.58 218.951 111.975C210.239 112.711 205.138 119.44 203.533 132.163C202.329 141.268 204.335 151.05 208.405 156.536C213.735 163.661 223.25 164.735 229.784 158.967C231.332 157.61 232.822 156.479 233.051 156.479C233.796 156.479 239.012 161.738 239.012 162.417C239.012 162.812 238.324 163.661 237.522 164.452C234.828 166.884 230.529 173.444 229.154 177.119C227.491 181.813 226.517 182.209 218.091 182.152C212.589 182.152 211.156 181.926 206.857 180.399C197.056 177.063 189.891 170.729 185.65 161.851C182.899 156.027 181.867 151.955 181.179 144.151C179.059 120.627 187.656 102.079 204.049 94.6717C211.041 91.505 220.613 90.6002 228.065 92.2966ZM105.234 102.871C105.005 108.243 104.776 112.711 104.718 112.767C104.604 112.824 96.0061 113.05 85.5171 113.276L66.4878 113.672V121.532V129.336H82.25H98.0122V138.949V148.562H82.25H66.4878V164.679V180.795H55.311H44.1341V136.97V93.1449H74.8561H105.635L105.234 102.871ZM273.059 149.863C273.345 153.199 273.46 156.027 273.345 156.14C273.23 156.253 268.129 156.479 262.111 156.649L251.049 156.931V150.881C251.049 146.866 251.278 144.604 251.737 144.151C252.252 143.643 255.176 143.473 262.512 143.586L272.543 143.756L273.059 149.863ZM270.823 161.512C281.599 162.756 290.483 171.464 292.26 182.491C292.604 184.527 292.89 187.241 292.89 188.542V190.974H262.226H231.504L231.905 186.563C232.822 175.819 237.923 168.128 247.209 163.434C251.565 161.286 261.595 160.437 270.823 161.512ZM297.648 197.307C298.622 198.608 298.679 199.06 298.106 200.53C297.705 201.435 296.96 202.396 296.444 202.622C295.183 203.245 242.394 203.64 233.968 203.131C228.007 202.792 227.434 202.622 226.632 201.378C225.428 199.625 226.059 196.741 227.721 196.063C228.409 195.78 244.171 195.611 262.741 195.667L296.501 195.78L297.648 197.307ZM47.2866 221.001C49.8085 221.679 52.3878 223.772 53.6488 226.147C54.1646 227.108 54.4512 229.37 54.4512 232.141C54.4512 236.212 54.2793 236.834 52.7317 238.927C50.2098 242.376 48.5476 242.998 42.128 242.998H36.6829V237.739C36.6829 234.799 36.8549 229.709 37.0841 226.429L37.4281 220.379H41.211C43.2744 220.379 46.0256 220.661 47.2866 221.001ZM73.3659 222.641V224.903H68.7805H64.1951V227.164V229.426H67.8634C71.4744 229.426 71.5317 229.426 71.8756 231.179C72.0476 232.141 72.0476 233.159 71.8756 233.441C71.7037 233.724 69.9268 233.95 67.8634 233.95H64.1951V236.495V239.04H68.7805H73.3659V241.019V242.998H66.4878H59.6098V231.688V220.379H66.4878H73.3659V222.641ZM89.7012 221.34C91.9939 222.414 92.0512 222.697 90.8476 224.563C89.9305 225.864 89.8732 225.92 87.6378 225.016C85.861 224.337 85.1159 224.281 83.9122 224.846C81.3902 225.977 82.3073 227.673 86.8354 230.048C92.4524 233.046 93.828 235.477 91.9939 239.266C90.1024 243.168 84.1415 244.694 79.6707 242.433C76.6902 240.962 76.5756 240.51 78.1805 238.7C79.4988 237.174 79.5561 237.117 80.989 238.078C84.0268 240.058 88.7841 238.7 87.3512 236.325C87.0073 235.76 85.2878 234.572 83.5683 233.668C79.2695 231.406 78.0659 230.218 77.6073 227.9C76.5183 222.188 83.4537 218.399 89.7012 221.34ZM110.622 222.641V224.903H106.037H101.451V227.164V229.426H105.463H109.476V231.688V233.95H105.463H101.451V236.495V239.04H106.037H110.622V241.019V242.998H103.744H96.8659V231.688V220.379H103.744H110.622V222.641ZM123.576 226.599C125.696 230.048 127.645 232.989 127.874 233.159C128.161 233.328 128.39 230.501 128.39 226.938V220.379H130.683H132.976V231.688V242.998H130.74H128.562L124.607 236.325L120.652 229.709L120.48 236.325L120.309 242.998H118.073H115.78V231.688V220.379H117.729C119.621 220.379 119.85 220.661 123.576 226.599ZM153.037 222.641V224.903H150.457H147.878V233.95V242.998H145.299H142.72V233.95V224.903H139.854H136.988V222.641V220.379H145.012H153.037V222.641ZM161.863 221.283C162.035 221.792 162.207 225.468 162.207 229.483C162.207 236.552 162.265 236.891 163.64 238.248C165.073 239.662 166.793 239.718 168.168 238.474C169.028 237.626 169.601 233.215 169.659 226.712V220.379H172.009H174.359L174.129 228.974C173.9 238.644 173.384 240.453 170.06 242.433C166.162 244.808 160.488 243.337 158.367 239.492C157.565 237.965 157.335 235.929 157.163 228.974L156.934 220.379H159.227C160.774 220.379 161.634 220.661 161.863 221.283ZM191.898 221.849C196.426 224.45 196.54 232.028 192.127 234.629C191.267 235.138 189.204 235.76 187.599 235.986L184.676 236.325L184.274 239.662L183.873 242.998H181.638H179.402V231.632V220.209L184.733 220.492C188.573 220.718 190.637 221.057 191.898 221.849ZM204.622 231.632V242.885L202.329 243.111L200.037 243.337V231.858V220.379H202.329H204.622V231.632ZM222.849 221.736C223.88 222.245 225.485 223.772 226.46 225.072C228.122 227.334 228.237 227.617 228.007 232.31C227.835 236.608 227.663 237.4 226.23 239.209C223.766 242.376 222.104 242.998 215.799 242.998H210.354V231.632V220.209L215.684 220.492C219.009 220.661 221.645 221.114 222.849 221.736ZM247.266 221.17C254.774 224.281 255.004 238.7 247.552 242.433C243.827 244.299 239.127 243.79 236.261 241.132C233.51 238.587 232.593 235.873 232.822 230.784C232.994 225.638 233.796 223.998 237.293 221.623C239.528 220.152 244.228 219.926 247.266 221.17ZM268.817 221.17C273.861 222.98 274.95 229.483 270.938 233.781L269.791 235.025L271.396 237.739C272.313 239.209 273.402 241.019 273.861 241.697C274.663 242.998 274.663 242.998 271.912 242.998H269.104L267.098 239.435C265.665 237.004 264.633 235.873 263.773 235.76C262.57 235.59 262.512 235.76 262.512 239.266V242.998H260.22H257.927V231.688V220.379L262.398 220.435C264.805 220.435 267.728 220.775 268.817 221.17ZM293.865 231.406C295.871 237.287 297.476 242.319 297.476 242.546C297.476 242.828 296.329 242.998 294.954 242.998C292.489 242.998 292.432 242.941 291.916 240.849L291.4 238.757H287.732H284.006L283.49 240.849C282.974 242.941 282.86 242.998 280.452 242.998C279.077 242.998 277.988 242.828 277.988 242.546C277.988 242.319 279.593 237.23 281.541 231.236L285.095 220.322L287.674 220.492L290.196 220.661L293.865 231.406Z" fill="black"/>
<path d="M41.8413 231.971V239.039H43.8474C46.8279 239.039 49.3498 236.607 49.6937 233.271C50.2669 228.125 47.9169 224.902 43.5608 224.902H41.8413V231.971Z" fill="black"/>
<path d="M183.988 228.295V231.688H185.994C188.631 231.688 191.095 229.426 190.58 227.56C190.006 225.75 188.631 224.902 186.166 224.902H183.988V228.295Z" fill="black"/>
<path d="M215.512 232.027V239.209L217.862 238.87C220.67 238.53 222.103 237.286 223.02 234.685C223.708 232.536 223.307 228.521 222.218 227.108C221.186 225.75 219.237 224.902 217.289 224.902H215.512V232.027Z" fill="black"/>
<path d="M239.871 225.58C237.407 227.729 236.719 233.497 238.553 236.947C238.84 237.512 239.986 238.36 241.075 238.813C245.202 240.509 248.469 236.834 248.01 231.066C247.724 227.503 246.864 225.807 244.915 224.958C242.852 224.054 241.533 224.223 239.871 225.58Z" fill="black"/>
<path d="M262.627 228.126C262.799 231.236 262.914 231.406 264.347 231.575C266.066 231.801 268.817 229.596 268.817 228.013C268.817 226.486 266.639 224.902 264.518 224.902H262.455L262.627 228.126Z" fill="black"/>
<path d="M286.413 230.331C285.897 232.084 285.611 233.78 285.783 234.007C286.069 234.459 290.024 234.742 290.024 234.346C290.024 233.667 288.133 227.899 287.789 227.56C287.502 227.334 286.929 228.578 286.413 230.331Z" fill="black"/>
</svg>
