<svg width="44" height="50" viewBox="0 0 44 50" fill="none" xmlns="http://www.w3.org/2000/svg">
<path d="M17.4166 1.26702C7.10408 3.58154 0.645752 11.8928 0.645752 22.6237C0.749919 26.9372 1.47909 30.3037 2.93742 33.1443C5.43742 37.9837 13.7708 46.295 18.6666 48.8199C21.7916 50.398 22.2083 50.398 25.3333 48.8199C30.2291 46.295 38.5624 37.9837 41.0624 33.1443C44.4999 26.5163 44.1874 17.4687 40.2291 11.0511C35.4374 3.26592 26.1666 -0.731887 17.4166 1.26702ZM28.2499 16.3114C34.3958 22.9394 28.1458 33.3547 19.3958 31.1454C16.1666 30.3037 13.3541 26.0955 13.3541 21.9925C13.3541 14.5229 23.1458 10.7355 28.2499 16.3114Z" fill="url(#paint0_linear_13_21)"/>
<defs>
<linearGradient id="paint0_linear_13_21" x1="22.0408" y1="0.756561" x2="22.0408" y2="50.0035" gradientUnits="userSpaceOnUse">
<stop stop-color="#006BB9"/>
<stop offset="1" stop-color="#074979"/>
</linearGradient>
</defs>
</svg>
