<svg width="51" height="52" viewBox="0 0 51 52" fill="none" xmlns="http://www.w3.org/2000/svg">
<path d="M42.2494 4.92988C32.429 12.7271 29.9739 16.0042 28.266 23.9144C26.9851 29.6776 26.9851 31.1466 28.1592 31.8247C30.2941 33.2937 30.9346 33.0677 33.4964 29.4516C35.5246 26.4005 36.4852 26.0615 41.3955 26.0615C44.7045 26.0615 47.3731 25.4965 48.1203 24.5924C49.6147 22.5584 48.5473 21.5414 44.8113 21.5414C43.2101 21.5414 41.8224 20.9763 41.8224 20.4113C41.8224 19.7333 42.8899 19.2813 44.2775 19.2813C47.1596 19.2813 49.8282 17.3602 50.6822 14.5352C51.6429 11.8231 50.1485 11.1451 46.1989 12.6141C41.182 14.4222 41.182 13.2921 46.0922 9.78902C50.2552 6.85094 51.2159 4.47787 49.508 1.42678C48.7608 0.296749 46.9461 1.20078 42.2494 4.92988Z" fill="url(#paint0_linear_13_14)"/>
<path d="M26.8783 2.4438C25.3839 2.89582 22.0748 3.23483 19.4062 3.34783C14.3893 3.46083 7.66441 6.85093 7.66441 9.224C7.66441 10.015 9.5858 14.3091 11.9342 18.8293L16.2039 27.1915L9.37231 30.4686C2.22048 33.8587 0.299092 36.6838 1.15304 42.447C1.58002 45.385 4.56884 50.6962 6.17 51.3742C7.8779 52.0522 18.9793 49.0011 23.1423 46.6281C24.8502 45.611 28.0525 44.82 30.0806 44.707C34.7773 44.368 39.5808 42.447 40.328 40.2999C40.6482 39.3959 40.328 36.5708 39.6876 33.9717L38.5134 29.3386L34.6706 32.8417C32.5357 34.8757 30.1874 36.1188 29.3334 35.7798C28.4795 35.4408 27.3053 35.1017 26.8783 35.1017C22.1816 35.1017 24.6367 17.8122 30.1874 11.8231C32.856 8.88499 33.1762 7.98096 32.3222 5.49489C31.0413 1.76579 30.1874 1.31377 26.8783 2.4438Z" fill="url(#paint1_linear_13_14)"/>
<defs>
<linearGradient id="paint0_linear_13_14" x1="39.1278" y1="32.6734" x2="39.1278" y2="0.971647" gradientUnits="userSpaceOnUse">
<stop stop-color="#074979"/>
<stop offset="1" stop-color="#006BB9"/>
</linearGradient>
<linearGradient id="paint1_linear_13_14" x1="20.7089" y1="51.4703" x2="20.7089" y2="1.89941" gradientUnits="userSpaceOnUse">
<stop stop-color="#074979"/>
<stop offset="1" stop-color="#006BB9"/>
</linearGradient>
</defs>
</svg>
