<svg width="101" height="103" viewBox="0 0 101 103" fill="none" xmlns="http://www.w3.org/2000/svg">
<path d="M31.3597 2.43436C33.8375 4.25433 37.6667 10.6242 39.6939 16.539C43.5231 27.9138 43.7484 26.7763 33.387 41.336C30.2335 45.4309 41.0454 60.673 50.7311 66.1329L58.84 70.4553L64.4712 65.2229C71.0034 59.0806 77.3104 58.6256 88.7981 63.403C98.4838 67.4979 101.862 72.9577 100.286 81.6025C98.709 89.5649 88.1223 100.485 80.6891 101.85C71.0034 103.67 49.8301 99.1196 38.1172 92.9773C16.2681 80.6926 0.500694 55.8956 0.0501938 31.5537C-0.625549 13.3541 5.45616 4.93681 21.8993 0.386917C24.377 -0.29557 28.6567 0.61441 31.3597 2.43436Z" fill="url(#paint0_linear_13_11)"/>
<defs>
<linearGradient id="paint0_linear_13_11" x1="50.3283" y1="102.255" x2="50.3283" y2="0.160324" gradientUnits="userSpaceOnUse">
<stop stop-color="#7D5A00"/>
<stop offset="0.447115" stop-color="#FCBC19"/>
</linearGradient>
</defs>
</svg>
