<svg width="99" height="100" viewBox="0 0 99 100" fill="none" xmlns="http://www.w3.org/2000/svg">
<path d="M40.6626 1.29836C12.2563 6.39872 -7.52286 41.0387 3.20839 66.9655C5.31255 72.0659 5.31255 75.6786 3.20839 84.1792C-0.158279 98.4178 1.73547 100.543 14.5709 96.9302C21.7251 95.0175 25.5126 95.0175 31.4042 96.9302C35.6126 98.2052 44.2396 99.2678 50.5521 99.2678C79.8 99.2678 103.156 70.7908 97.8959 41.6762C93.0563 15.3244 66.5438 -3.37697 40.6626 1.29836ZM42.1355 30.2004C45.0813 34.6632 45.2917 36.7884 43.398 41.0387C39.1896 50.1768 50.1313 61.2276 58.9688 56.5523C62.9667 54.4271 64.65 54.6397 69.2792 57.6149C72.2251 59.74 74.75 62.2902 74.75 63.5653C74.75 68.0281 65.4917 75.6786 60.4417 75.6786C47.1855 75.6786 24.2501 53.3646 24.2501 40.4011C24.2501 35.0883 31.8251 24.675 35.823 24.675C37.2959 24.675 40.0313 27.2252 42.1355 30.2004Z" fill="url(#paint0_linear_11_8)"/>
<defs>
<linearGradient id="paint0_linear_11_8" x1="49.4427" y1="99.2678" x2="49.4427" y2="0.580482" gradientUnits="userSpaceOnUse">
<stop stop-color="#7D5A00"/>
<stop offset="0.447115" stop-color="#FCBC19"/>
</linearGradient>
</defs>
</svg>
